<mxfile host="app.diagrams.net" modified="2024-05-18T09:23:37.646Z" agent="Mozilla/5.0 (Windows NT 10.0; Win64; x64) AppleWebKit/537.36 (KHTML, like Gecko) Chrome/124.0.0.0 Safari/537.36 Edg/124.0.0.0" etag="am5him_3nEQ2sePxreZ7" version="24.4.4" type="device">
  <diagram name="Page-1" id="WkSSjCMqPkoE1xG8UEVj">
    <mxGraphModel dx="2515" dy="2102" grid="1" gridSize="10" guides="1" tooltips="1" connect="1" arrows="1" fold="1" page="1" pageScale="1" pageWidth="827" pageHeight="1169" math="0" shadow="0">
      <root>
        <mxCell id="0" />
        <mxCell id="1" parent="0" />
        <mxCell id="NjuFGZF7PFVIJAspxvCk-65" value="" style="whiteSpace=wrap;html=1;aspect=fixed;" vertex="1" parent="1">
          <mxGeometry x="-296" y="-100" width="1360" height="1360" as="geometry" />
        </mxCell>
        <mxCell id="NjuFGZF7PFVIJAspxvCk-1" value=":WemosD1" style="rounded=0;whiteSpace=wrap;html=1;" vertex="1" parent="1">
          <mxGeometry x="70" y="40" width="80" height="40" as="geometry" />
        </mxCell>
        <mxCell id="NjuFGZF7PFVIJAspxvCk-2" value=":MRC522" style="rounded=0;whiteSpace=wrap;html=1;" vertex="1" parent="1">
          <mxGeometry x="240" y="40" width="80" height="40" as="geometry" />
        </mxCell>
        <mxCell id="NjuFGZF7PFVIJAspxvCk-3" value=":piServer" style="rounded=0;whiteSpace=wrap;html=1;" vertex="1" parent="1">
          <mxGeometry x="640" y="40" width="80" height="40" as="geometry" />
        </mxCell>
        <mxCell id="NjuFGZF7PFVIJAspxvCk-6" value=":Wifi" style="rounded=0;whiteSpace=wrap;html=1;" vertex="1" parent="1">
          <mxGeometry x="440" y="40" width="80" height="40" as="geometry" />
        </mxCell>
        <mxCell id="NjuFGZF7PFVIJAspxvCk-7" value="" style="endArrow=none;dashed=1;html=1;rounded=0;" edge="1" parent="1" source="NjuFGZF7PFVIJAspxvCk-24">
          <mxGeometry width="50" height="50" relative="1" as="geometry">
            <mxPoint x="109.66" y="980" as="sourcePoint" />
            <mxPoint x="109.66" y="80" as="targetPoint" />
          </mxGeometry>
        </mxCell>
        <mxCell id="NjuFGZF7PFVIJAspxvCk-8" value="" style="endArrow=none;dashed=1;html=1;rounded=0;" edge="1" parent="1" source="NjuFGZF7PFVIJAspxvCk-35">
          <mxGeometry width="50" height="50" relative="1" as="geometry">
            <mxPoint x="269.65999999999997" y="990" as="sourcePoint" />
            <mxPoint x="269.65999999999997" y="90" as="targetPoint" />
          </mxGeometry>
        </mxCell>
        <mxCell id="NjuFGZF7PFVIJAspxvCk-9" value="" style="endArrow=none;dashed=1;html=1;rounded=0;" edge="1" parent="1" source="NjuFGZF7PFVIJAspxvCk-15">
          <mxGeometry width="50" height="50" relative="1" as="geometry">
            <mxPoint x="479.65999999999997" y="980" as="sourcePoint" />
            <mxPoint x="479.65999999999997" y="80" as="targetPoint" />
          </mxGeometry>
        </mxCell>
        <mxCell id="NjuFGZF7PFVIJAspxvCk-10" value="" style="endArrow=none;dashed=1;html=1;rounded=0;" edge="1" parent="1" source="NjuFGZF7PFVIJAspxvCk-42">
          <mxGeometry width="50" height="50" relative="1" as="geometry">
            <mxPoint x="679.66" y="980" as="sourcePoint" />
            <mxPoint x="679.66" y="80" as="targetPoint" />
          </mxGeometry>
        </mxCell>
        <mxCell id="NjuFGZF7PFVIJAspxvCk-11" value="" style="rounded=0;whiteSpace=wrap;html=1;" vertex="1" parent="1">
          <mxGeometry x="100" y="110" width="20" height="130" as="geometry" />
        </mxCell>
        <mxCell id="NjuFGZF7PFVIJAspxvCk-12" value="" style="endArrow=classic;html=1;rounded=0;" edge="1" parent="1">
          <mxGeometry width="50" height="50" relative="1" as="geometry">
            <mxPoint x="120" y="135" as="sourcePoint" />
            <mxPoint x="120" y="160" as="targetPoint" />
            <Array as="points">
              <mxPoint x="160" y="135" />
              <mxPoint x="160" y="160" />
              <mxPoint x="140" y="160" />
              <mxPoint x="120" y="160" />
            </Array>
          </mxGeometry>
        </mxCell>
        <mxCell id="NjuFGZF7PFVIJAspxvCk-13" value="&lt;span style=&quot;font-size: 11px;&quot;&gt;setup()&lt;/span&gt;" style="text;html=1;align=center;verticalAlign=middle;whiteSpace=wrap;rounded=0;" vertex="1" parent="1">
          <mxGeometry x="150" y="130" width="60" height="30" as="geometry" />
        </mxCell>
        <mxCell id="NjuFGZF7PFVIJAspxvCk-14" value="" style="endArrow=classic;html=1;rounded=0;exitX=0.989;exitY=0.957;exitDx=0;exitDy=0;exitPerimeter=0;" edge="1" parent="1">
          <mxGeometry width="50" height="50" relative="1" as="geometry">
            <mxPoint x="120.0000000000002" y="191.35999999999984" as="sourcePoint" />
            <mxPoint x="470.22000000000025" y="189.99886513797122" as="targetPoint" />
          </mxGeometry>
        </mxCell>
        <mxCell id="NjuFGZF7PFVIJAspxvCk-16" value="" style="endArrow=none;dashed=1;html=1;rounded=0;" edge="1" parent="1" target="NjuFGZF7PFVIJAspxvCk-15">
          <mxGeometry width="50" height="50" relative="1" as="geometry">
            <mxPoint x="479.65999999999997" y="980" as="sourcePoint" />
            <mxPoint x="479.65999999999997" y="80" as="targetPoint" />
          </mxGeometry>
        </mxCell>
        <mxCell id="NjuFGZF7PFVIJAspxvCk-15" value="" style="rounded=0;whiteSpace=wrap;html=1;" vertex="1" parent="1">
          <mxGeometry x="470" y="140" width="20" height="100" as="geometry" />
        </mxCell>
        <mxCell id="NjuFGZF7PFVIJAspxvCk-18" value="&lt;span style=&quot;font-size: 11px;&quot;&gt;WiFi.begin(ssid,password)&lt;/span&gt;" style="text;html=1;align=center;verticalAlign=middle;whiteSpace=wrap;rounded=0;" vertex="1" parent="1">
          <mxGeometry x="354" y="170" width="60" height="30" as="geometry" />
        </mxCell>
        <mxCell id="NjuFGZF7PFVIJAspxvCk-25" value="" style="endArrow=none;dashed=1;html=1;rounded=0;" edge="1" parent="1" source="NjuFGZF7PFVIJAspxvCk-39" target="NjuFGZF7PFVIJAspxvCk-24">
          <mxGeometry width="50" height="50" relative="1" as="geometry">
            <mxPoint x="109.66" y="980" as="sourcePoint" />
            <mxPoint x="109.66" y="80" as="targetPoint" />
          </mxGeometry>
        </mxCell>
        <mxCell id="NjuFGZF7PFVIJAspxvCk-24" value="" style="rounded=0;whiteSpace=wrap;html=1;" vertex="1" parent="1">
          <mxGeometry x="100" y="280" width="20" height="70" as="geometry" />
        </mxCell>
        <mxCell id="NjuFGZF7PFVIJAspxvCk-29" value="loop" style="shape=umlFrame;whiteSpace=wrap;html=1;pointerEvents=0;" vertex="1" parent="1">
          <mxGeometry x="60" y="260" width="195" height="110" as="geometry" />
        </mxCell>
        <mxCell id="NjuFGZF7PFVIJAspxvCk-30" value="" style="endArrow=classic;html=1;rounded=0;entryX=1;entryY=0.75;entryDx=0;entryDy=0;" edge="1" parent="1" target="NjuFGZF7PFVIJAspxvCk-24">
          <mxGeometry width="50" height="50" relative="1" as="geometry">
            <mxPoint x="120" y="370" as="sourcePoint" />
            <mxPoint x="170" y="320" as="targetPoint" />
            <Array as="points">
              <mxPoint x="120" y="300" />
              <mxPoint x="180" y="300" />
              <mxPoint x="180" y="333" />
            </Array>
          </mxGeometry>
        </mxCell>
        <mxCell id="NjuFGZF7PFVIJAspxvCk-31" value="&lt;span style=&quot;font-size: 11px;&quot;&gt;WiFi.status()&lt;/span&gt;" style="text;html=1;align=center;verticalAlign=middle;whiteSpace=wrap;rounded=0;" vertex="1" parent="1">
          <mxGeometry x="180" y="300" width="60" height="30" as="geometry" />
        </mxCell>
        <mxCell id="NjuFGZF7PFVIJAspxvCk-32" value="" style="rounded=0;whiteSpace=wrap;html=1;" vertex="1" parent="1">
          <mxGeometry x="670" y="340" width="20" height="70" as="geometry" />
        </mxCell>
        <mxCell id="NjuFGZF7PFVIJAspxvCk-33" value="" style="endArrow=classic;html=1;rounded=0;entryX=0;entryY=0.571;entryDx=0;entryDy=0;entryPerimeter=0;" edge="1" parent="1" target="NjuFGZF7PFVIJAspxvCk-32">
          <mxGeometry width="50" height="50" relative="1" as="geometry">
            <mxPoint x="110" y="380" as="sourcePoint" />
            <mxPoint x="160" y="340" as="targetPoint" />
          </mxGeometry>
        </mxCell>
        <mxCell id="NjuFGZF7PFVIJAspxvCk-34" value="&lt;span style=&quot;font-size: 11px;&quot;&gt;sendIP(Wemos3)&lt;/span&gt;" style="text;html=1;align=center;verticalAlign=middle;whiteSpace=wrap;rounded=0;" vertex="1" parent="1">
          <mxGeometry x="540" y="360" width="60" height="30" as="geometry" />
        </mxCell>
        <mxCell id="NjuFGZF7PFVIJAspxvCk-36" value="Actor" style="shape=umlActor;verticalLabelPosition=bottom;verticalAlign=top;html=1;outlineConnect=0;" vertex="1" parent="1">
          <mxGeometry x="-130" y="480" width="30" height="60" as="geometry" />
        </mxCell>
        <mxCell id="NjuFGZF7PFVIJAspxvCk-38" value="&lt;span style=&quot;font-size: 11px;&quot;&gt;&amp;nbsp;(!rfid.PICC_IsNewCardPresent())&lt;/span&gt;" style="text;html=1;align=center;verticalAlign=middle;whiteSpace=wrap;rounded=0;" vertex="1" parent="1">
          <mxGeometry x="370" y="460" width="60" height="30" as="geometry" />
        </mxCell>
        <mxCell id="NjuFGZF7PFVIJAspxvCk-40" value="" style="endArrow=none;dashed=1;html=1;rounded=0;" edge="1" parent="1" target="NjuFGZF7PFVIJAspxvCk-39">
          <mxGeometry width="50" height="50" relative="1" as="geometry">
            <mxPoint x="109.66" y="980" as="sourcePoint" />
            <mxPoint x="110" y="350" as="targetPoint" />
          </mxGeometry>
        </mxCell>
        <mxCell id="NjuFGZF7PFVIJAspxvCk-39" value="" style="rounded=0;whiteSpace=wrap;html=1;" vertex="1" parent="1">
          <mxGeometry x="100" y="480" width="20" height="130" as="geometry" />
        </mxCell>
        <mxCell id="NjuFGZF7PFVIJAspxvCk-41" value="" style="endArrow=classic;html=1;rounded=0;entryX=1.064;entryY=0.539;entryDx=0;entryDy=0;entryPerimeter=0;" edge="1" parent="1" target="NjuFGZF7PFVIJAspxvCk-39">
          <mxGeometry width="50" height="50" relative="1" as="geometry">
            <mxPoint x="260" y="550" as="sourcePoint" />
            <mxPoint x="270" y="510" as="targetPoint" />
            <Array as="points">
              <mxPoint x="190" y="550" />
            </Array>
          </mxGeometry>
        </mxCell>
        <mxCell id="NjuFGZF7PFVIJAspxvCk-43" value="" style="endArrow=none;dashed=1;html=1;rounded=0;" edge="1" parent="1" target="NjuFGZF7PFVIJAspxvCk-42">
          <mxGeometry width="50" height="50" relative="1" as="geometry">
            <mxPoint x="679.66" y="980" as="sourcePoint" />
            <mxPoint x="679.66" y="80" as="targetPoint" />
          </mxGeometry>
        </mxCell>
        <mxCell id="NjuFGZF7PFVIJAspxvCk-58" style="edgeStyle=orthogonalEdgeStyle;rounded=0;orthogonalLoop=1;jettySize=auto;html=1;exitX=1.028;exitY=0.456;exitDx=0;exitDy=0;entryX=0.961;entryY=0.785;entryDx=0;entryDy=0;entryPerimeter=0;exitPerimeter=0;" edge="1" parent="1" source="NjuFGZF7PFVIJAspxvCk-42" target="NjuFGZF7PFVIJAspxvCk-42">
          <mxGeometry relative="1" as="geometry">
            <mxPoint x="750" y="670" as="targetPoint" />
            <Array as="points">
              <mxPoint x="691" y="620" />
              <mxPoint x="740" y="620" />
              <mxPoint x="740" y="650" />
              <mxPoint x="689" y="650" />
            </Array>
          </mxGeometry>
        </mxCell>
        <mxCell id="NjuFGZF7PFVIJAspxvCk-42" value="" style="rounded=0;whiteSpace=wrap;html=1;" vertex="1" parent="1">
          <mxGeometry x="670" y="540" width="20" height="140" as="geometry" />
        </mxCell>
        <mxCell id="NjuFGZF7PFVIJAspxvCk-44" value="" style="endArrow=classic;html=1;rounded=0;entryX=0;entryY=0.379;entryDx=0;entryDy=0;entryPerimeter=0;" edge="1" parent="1" target="NjuFGZF7PFVIJAspxvCk-42">
          <mxGeometry width="50" height="50" relative="1" as="geometry">
            <mxPoint x="121" y="593" as="sourcePoint" />
            <mxPoint x="670" y="593.14" as="targetPoint" />
          </mxGeometry>
        </mxCell>
        <mxCell id="NjuFGZF7PFVIJAspxvCk-47" value="" style="endArrow=none;dashed=1;html=1;rounded=0;" edge="1" parent="1" target="NjuFGZF7PFVIJAspxvCk-35">
          <mxGeometry width="50" height="50" relative="1" as="geometry">
            <mxPoint x="269.65999999999997" y="990" as="sourcePoint" />
            <mxPoint x="269.65999999999997" y="90" as="targetPoint" />
          </mxGeometry>
        </mxCell>
        <mxCell id="NjuFGZF7PFVIJAspxvCk-49" style="edgeStyle=orthogonalEdgeStyle;rounded=0;orthogonalLoop=1;jettySize=auto;html=1;exitX=1;exitY=0.25;exitDx=0;exitDy=0;entryX=1.033;entryY=0.559;entryDx=0;entryDy=0;entryPerimeter=0;" edge="1" parent="1" source="NjuFGZF7PFVIJAspxvCk-35" target="NjuFGZF7PFVIJAspxvCk-35">
          <mxGeometry relative="1" as="geometry">
            <mxPoint x="330" y="453" as="targetPoint" />
            <Array as="points">
              <mxPoint x="280" y="452" />
              <mxPoint x="320" y="452" />
              <mxPoint x="320" y="498" />
              <mxPoint x="281" y="498" />
            </Array>
          </mxGeometry>
        </mxCell>
        <mxCell id="NjuFGZF7PFVIJAspxvCk-35" value="" style="rounded=0;whiteSpace=wrap;html=1;" vertex="1" parent="1">
          <mxGeometry x="255" y="430" width="25" height="130" as="geometry" />
        </mxCell>
        <mxCell id="NjuFGZF7PFVIJAspxvCk-50" value="loop" style="shape=umlFrame;whiteSpace=wrap;html=1;pointerEvents=0;" vertex="1" parent="1">
          <mxGeometry x="230" y="420" width="250" height="140" as="geometry" />
        </mxCell>
        <mxCell id="NjuFGZF7PFVIJAspxvCk-52" value="" style="endArrow=classic;html=1;rounded=0;entryX=0.04;entryY=0.879;entryDx=0;entryDy=0;entryPerimeter=0;" edge="1" parent="1">
          <mxGeometry width="50" height="50" relative="1" as="geometry">
            <mxPoint x="-91" y="520.89" as="sourcePoint" />
            <mxPoint x="254.99999999999955" y="519.9999999999999" as="targetPoint" />
          </mxGeometry>
        </mxCell>
        <mxCell id="NjuFGZF7PFVIJAspxvCk-53" value="&lt;span style=&quot;font-size: 11px;&quot;&gt;Scan RFIDtag&lt;/span&gt;" style="text;html=1;align=center;verticalAlign=middle;whiteSpace=wrap;rounded=0;" vertex="1" parent="1">
          <mxGeometry x="-30" y="495" width="80" height="30" as="geometry" />
        </mxCell>
        <mxCell id="NjuFGZF7PFVIJAspxvCk-54" value="&lt;span style=&quot;font-size: 11px;&quot;&gt;New Card Detected&lt;/span&gt;" style="text;html=1;align=center;verticalAlign=middle;whiteSpace=wrap;rounded=0;" vertex="1" parent="1">
          <mxGeometry x="130" y="530" width="100" height="30" as="geometry" />
        </mxCell>
        <mxCell id="NjuFGZF7PFVIJAspxvCk-56" value="sendRFIDData();" style="text;whiteSpace=wrap;" vertex="1" parent="1">
          <mxGeometry x="320" y="570" width="120" height="40" as="geometry" />
        </mxCell>
        <mxCell id="NjuFGZF7PFVIJAspxvCk-60" value="&lt;span style=&quot;font-size: 11px;&quot;&gt;server.receiveData();&lt;/span&gt;" style="text;html=1;align=center;verticalAlign=middle;whiteSpace=wrap;rounded=0;" vertex="1" parent="1">
          <mxGeometry x="760" y="620" width="80" height="30" as="geometry" />
        </mxCell>
        <mxCell id="NjuFGZF7PFVIJAspxvCk-64" value="&lt;span style=&quot;font-size: 11px;&quot;&gt;;&lt;/span&gt;" style="text;html=1;align=center;verticalAlign=middle;whiteSpace=wrap;rounded=0;" vertex="1" parent="1">
          <mxGeometry x="334" y="640" width="80" height="30" as="geometry" />
        </mxCell>
      </root>
    </mxGraphModel>
  </diagram>
</mxfile>
